<svg width="38" height="26" viewBox="0 0 38 26" fill="none" xmlns="http://www.w3.org/2000/svg">
<rect width="38" height="26" rx="13" fill="#EA5974"/>
<path d="M13.1414 8.85863C12.6672 8.38442 12.6672 7.61558 13.1414 7.14137C13.6156 6.66716 14.3844 6.66716 14.8586 7.14137L13.1414 8.85863ZM25.2143 18C25.2143 18.6706 24.6706 19.2143 24 19.2143L13.0714 19.2143C12.4008 19.2143 11.8571 18.6706 11.8571 18C11.8571 17.3294 12.4008 16.7857 13.0714 16.7857L22.7857 16.7857L22.7857 7.07143C22.7857 6.4008 23.3294 5.85714 24 5.85714C24.6706 5.85714 25.2143 6.4008 25.2143 7.07143L25.2143 18ZM14.8586 7.14137L24.8586 17.1414L23.1414 18.8586L13.1414 8.85863L14.8586 7.14137Z" fill="white"/>
</svg>
