<svg width="30" height="30" viewBox="0 0 30 30" fill="none" xmlns="http://www.w3.org/2000/svg">
<rect width="30" height="30" rx="15" transform="matrix(0 1 1 0 0 0)" fill="#EFEEF2"/>
<path d="M11.8092 19.8173L11.8089 19.8171L11.8023 19.826C11.5953 20.105 11.6181 20.5008 11.8712 20.7538C12.1494 21.0321 12.6006 21.0321 12.8788 20.7538L18.1288 15.5038L18.1291 15.5041L18.1363 15.4958L18.1908 15.4327L18.1911 15.4329L18.1977 15.424C18.4047 15.145 18.3819 14.7492 18.1288 14.4962L12.8788 9.24619L12.8791 9.2459L12.8708 9.23871L12.8077 9.18425L12.8079 9.18394L12.799 9.17733C12.52 8.97028 12.1242 8.99314 11.8712 9.24619L11.8709 9.2459L11.8637 9.25423L11.8092 9.31732L11.8089 9.31705L11.8023 9.32596C11.5953 9.605 11.6181 10.0008 11.8712 10.2538C11.8712 10.2538 11.8712 10.2538 11.8712 10.2538L16.6171 15L11.8712 19.7462L11.8709 19.7459L11.8637 19.7542L11.8092 19.8173Z" fill="#858585" stroke="#858585" stroke-width="0.3"/>
</svg>