<svg width="345" height="260" viewBox="0 0 345 260" fill="none" xmlns="http://www.w3.org/2000/svg">
<rect width="345" height="260" rx="20" fill="white"/>
<path d="M43.968 45.434V49.754H42.294V47H31.926L31.908 49.754H30.234L30.252 45.434H30.864C31.656 45.386 32.214 44.762 32.538 43.562C32.862 42.35 33.06 40.646 33.132 38.45L33.258 34.4H42.114V45.434H43.968ZM34.716 38.612C34.656 40.388 34.512 41.858 34.284 43.022C34.068 44.186 33.714 44.99 33.222 45.434H40.332V35.966H34.806L34.716 38.612ZM46.1408 37.46H47.8688V44.408L53.7188 37.46H55.2848V47H53.5568V40.052L47.7248 47H46.1408V37.46ZM58.6388 37.46H60.3668V41.51H65.8028V37.46H67.5308V47H65.8028V43.004H60.3668V47H58.6388V37.46ZM74.2928 37.37C75.6128 37.37 76.6208 37.694 77.3168 38.342C78.0248 38.99 78.3788 39.956 78.3788 41.24V47H76.7408V45.74C76.4528 46.184 76.0388 46.526 75.4988 46.766C74.9708 46.994 74.3408 47.108 73.6088 47.108C72.5408 47.108 71.6828 46.85 71.0348 46.334C70.3988 45.818 70.0808 45.14 70.0808 44.3C70.0808 43.46 70.3868 42.788 70.9988 42.284C71.6108 41.768 72.5828 41.51 73.9148 41.51H76.6508V41.168C76.6508 40.424 76.4348 39.854 76.0028 39.458C75.5708 39.062 74.9348 38.864 74.0948 38.864C73.5308 38.864 72.9788 38.96 72.4388 39.152C71.8988 39.332 71.4428 39.578 71.0708 39.89L70.3508 38.594C70.8428 38.198 71.4308 37.898 72.1148 37.694C72.7988 37.478 73.5248 37.37 74.2928 37.37ZM73.8968 45.776C74.5568 45.776 75.1268 45.632 75.6068 45.344C76.0868 45.044 76.4348 44.624 76.6508 44.084V42.752H73.9868C72.5228 42.752 71.7908 43.244 71.7908 44.228C71.7908 44.708 71.9768 45.086 72.3488 45.362C72.7208 45.638 73.2368 45.776 73.8968 45.776ZM92.4884 37.46V47H90.9224V40.034L87.3584 45.92H86.6024L83.0744 40.016V47H81.4904V37.46H83.2724L87.0164 43.904L90.8684 37.46H92.4884ZM95.8517 37.46H97.5797V44.408L103.43 37.46H104.996V47H103.268V40.052L97.4357 47H95.8517V37.46ZM112.058 42.968H110.078V47H108.35V37.46H110.078V41.492H112.094L115.19 37.46H117.044L113.426 42.05L117.296 47H115.262L112.058 42.968ZM122.334 37.37C123.654 37.37 124.662 37.694 125.358 38.342C126.066 38.99 126.42 39.956 126.42 41.24V47H124.782V45.74C124.494 46.184 124.08 46.526 123.54 46.766C123.012 46.994 122.382 47.108 121.65 47.108C120.582 47.108 119.724 46.85 119.076 46.334C118.44 45.818 118.122 45.14 118.122 44.3C118.122 43.46 118.428 42.788 119.04 42.284C119.652 41.768 120.624 41.51 121.956 41.51H124.692V41.168C124.692 40.424 124.476 39.854 124.044 39.458C123.612 39.062 122.976 38.864 122.136 38.864C121.572 38.864 121.02 38.96 120.48 39.152C119.94 39.332 119.484 39.578 119.112 39.89L118.392 38.594C118.884 38.198 119.472 37.898 120.156 37.694C120.84 37.478 121.566 37.37 122.334 37.37ZM121.938 45.776C122.598 45.776 123.168 45.632 123.648 45.344C124.128 45.044 124.476 44.624 124.692 44.084V42.752H122.028C120.564 42.752 119.832 43.244 119.832 44.228C119.832 44.708 120.018 45.086 120.39 45.362C120.762 45.638 121.278 45.776 121.938 45.776ZM139.531 42.032C140.167 42.2 140.659 42.47 141.007 42.842C141.355 43.214 141.529 43.676 141.529 44.228C141.529 44.792 141.337 45.296 140.953 45.74C140.569 46.172 140.035 46.514 139.351 46.766C138.679 47.006 137.923 47.126 137.083 47.126C136.375 47.126 135.679 47.036 134.995 46.856C134.323 46.664 133.723 46.394 133.195 46.046L133.717 44.732C134.173 45.02 134.695 45.248 135.283 45.416C135.871 45.572 136.465 45.65 137.065 45.65C137.881 45.65 138.529 45.512 139.009 45.236C139.501 44.948 139.747 44.564 139.747 44.084C139.747 43.64 139.549 43.298 139.153 43.058C138.769 42.818 138.223 42.698 137.515 42.698H135.769V41.456H137.389C138.037 41.456 138.547 41.342 138.919 41.114C139.291 40.886 139.477 40.574 139.477 40.178C139.477 39.746 139.255 39.41 138.811 39.17C138.379 38.93 137.791 38.81 137.047 38.81C136.099 38.81 135.097 39.056 134.041 39.548L133.573 38.216C134.737 37.628 135.955 37.334 137.227 37.334C137.995 37.334 138.685 37.442 139.297 37.658C139.909 37.874 140.389 38.18 140.737 38.576C141.085 38.972 141.259 39.422 141.259 39.926C141.259 40.394 141.103 40.814 140.791 41.186C140.479 41.558 140.059 41.84 139.531 42.032ZM147.558 37.37C148.878 37.37 149.886 37.694 150.582 38.342C151.29 38.99 151.644 39.956 151.644 41.24V47H150.006V45.74C149.718 46.184 149.304 46.526 148.764 46.766C148.236 46.994 147.606 47.108 146.874 47.108C145.806 47.108 144.948 46.85 144.3 46.334C143.664 45.818 143.346 45.14 143.346 44.3C143.346 43.46 143.652 42.788 144.264 42.284C144.876 41.768 145.848 41.51 147.18 41.51H149.916V41.168C149.916 40.424 149.7 39.854 149.268 39.458C148.836 39.062 148.2 38.864 147.36 38.864C146.796 38.864 146.244 38.96 145.704 39.152C145.164 39.332 144.708 39.578 144.336 39.89L143.616 38.594C144.108 38.198 144.696 37.898 145.38 37.694C146.064 37.478 146.79 37.37 147.558 37.37ZM147.162 45.776C147.822 45.776 148.392 45.632 148.872 45.344C149.352 45.044 149.7 44.624 149.916 44.084V42.752H147.252C145.788 42.752 145.056 43.244 145.056 44.228C145.056 44.708 145.242 45.086 145.614 45.362C145.986 45.638 146.502 45.776 147.162 45.776ZM163.604 39.692C164.84 39.812 165.782 40.196 166.43 40.844C167.078 41.48 167.402 42.296 167.402 43.292C167.402 44.012 167.222 44.666 166.862 45.254C166.502 45.83 165.962 46.292 165.242 46.64C164.534 46.976 163.664 47.144 162.632 47.144C161.732 47.144 160.868 47.012 160.04 46.748C159.212 46.472 158.534 46.094 158.006 45.614L158.834 44.192C159.266 44.6 159.818 44.93 160.49 45.182C161.162 45.422 161.876 45.542 162.632 45.542C163.568 45.542 164.294 45.344 164.81 44.948C165.338 44.552 165.602 44.006 165.602 43.31C165.602 42.614 165.344 42.074 164.828 41.69C164.312 41.306 163.532 41.114 162.488 41.114H161.48V39.854L164.648 35.966H158.582V34.4H166.898V35.624L163.604 39.692ZM185.723 37.46V47H184.157V40.034L180.593 45.92H179.837L176.309 40.016V47H174.725V37.46H176.507L180.251 43.904L184.103 37.46H185.723ZM197.708 42.284C197.708 42.416 197.696 42.59 197.672 42.806H189.932C190.04 43.646 190.406 44.324 191.03 44.84C191.666 45.344 192.452 45.596 193.388 45.596C194.528 45.596 195.446 45.212 196.142 44.444L197.096 45.56C196.664 46.064 196.124 46.448 195.476 46.712C194.84 46.976 194.126 47.108 193.334 47.108C192.326 47.108 191.432 46.904 190.652 46.496C189.872 46.076 189.266 45.494 188.834 44.75C188.414 44.006 188.204 43.166 188.204 42.23C188.204 41.306 188.408 40.472 188.816 39.728C189.236 38.984 189.806 38.408 190.526 38C191.258 37.58 192.08 37.37 192.992 37.37C193.904 37.37 194.714 37.58 195.422 38C196.142 38.408 196.7 38.984 197.096 39.728C197.504 40.472 197.708 41.324 197.708 42.284ZM192.992 38.828C192.164 38.828 191.468 39.08 190.904 39.584C190.352 40.088 190.028 40.748 189.932 41.564H196.052C195.956 40.76 195.626 40.106 195.062 39.602C194.51 39.086 193.82 38.828 192.992 38.828ZM204.547 47.108C203.575 47.108 202.705 46.898 201.937 46.478C201.181 46.058 200.587 45.482 200.155 44.75C199.723 44.006 199.507 43.166 199.507 42.23C199.507 41.294 199.723 40.46 200.155 39.728C200.587 38.984 201.181 38.408 201.937 38C202.705 37.58 203.575 37.37 204.547 37.37C205.411 37.37 206.179 37.544 206.851 37.892C207.535 38.24 208.063 38.744 208.435 39.404L207.121 40.25C206.821 39.794 206.449 39.452 206.005 39.224C205.561 38.996 205.069 38.882 204.529 38.882C203.905 38.882 203.341 39.02 202.837 39.296C202.345 39.572 201.955 39.968 201.667 40.484C201.391 40.988 201.253 41.57 201.253 42.23C201.253 42.902 201.391 43.496 201.667 44.012C201.955 44.516 202.345 44.906 202.837 45.182C203.341 45.458 203.905 45.596 204.529 45.596C205.069 45.596 205.561 45.482 206.005 45.254C206.449 45.026 206.821 44.684 207.121 44.228L208.435 45.056C208.063 45.716 207.535 46.226 206.851 46.586C206.179 46.934 205.411 47.108 204.547 47.108ZM218.023 37.46V47H216.475V43.976H213.703H213.505L211.417 47H209.563L211.885 43.742C211.165 43.526 210.613 43.172 210.229 42.68C209.845 42.176 209.653 41.552 209.653 40.808C209.653 39.716 210.025 38.888 210.769 38.324C211.513 37.748 212.539 37.46 213.847 37.46H218.023ZM211.417 40.862C211.417 41.498 211.615 41.972 212.011 42.284C212.419 42.584 213.025 42.734 213.829 42.734H216.475V38.972H213.901C212.245 38.972 211.417 39.602 211.417 40.862ZM231.583 45.488V49.286H229.945V47H221.395V37.46H223.123V45.488H228.343V37.46H230.071V45.488H231.583ZM237.224 37.37C238.544 37.37 239.552 37.694 240.248 38.342C240.956 38.99 241.31 39.956 241.31 41.24V47H239.672V45.74C239.384 46.184 238.97 46.526 238.43 46.766C237.902 46.994 237.272 47.108 236.54 47.108C235.472 47.108 234.614 46.85 233.966 46.334C233.33 45.818 233.012 45.14 233.012 44.3C233.012 43.46 233.318 42.788 233.93 42.284C234.542 41.768 235.514 41.51 236.846 41.51H239.582V41.168C239.582 40.424 239.366 39.854 238.934 39.458C238.502 39.062 237.866 38.864 237.026 38.864C236.462 38.864 235.91 38.96 235.37 39.152C234.83 39.332 234.374 39.578 234.002 39.89L233.282 38.594C233.774 38.198 234.362 37.898 235.046 37.694C235.73 37.478 236.456 37.37 237.224 37.37ZM236.828 45.776C237.488 45.776 238.058 45.632 238.538 45.344C239.018 45.044 239.366 44.624 239.582 44.084V42.752H236.918C235.454 42.752 234.722 43.244 234.722 44.228C234.722 44.708 234.908 45.086 235.28 45.362C235.652 45.638 236.168 45.776 236.828 45.776Z" fill="#6D6D6D"/>
<path d="M25.9805 92.7391V101.261H24.7753V93.7983H22.8518V92.7391H25.9805ZM31.3263 101.358C30.6527 101.358 30.0521 101.188 29.5245 100.847C29.0051 100.498 28.5953 99.9948 28.295 99.3374C27.9947 98.68 27.8445 97.9009 27.8445 97C27.8445 96.0991 27.9947 95.32 28.295 94.6626C28.5953 94.0052 29.0051 93.5061 29.5245 93.1652C30.0521 92.8162 30.6527 92.6417 31.3263 92.6417C31.9918 92.6417 32.5842 92.8162 33.1037 93.1652C33.6312 93.5061 34.0451 94.0052 34.3454 94.6626C34.6457 95.32 34.7958 96.0991 34.7958 97C34.7958 97.9009 34.6457 98.68 34.3454 99.3374C34.0451 99.9948 33.6312 100.498 33.1037 100.847C32.5842 101.188 31.9918 101.358 31.3263 101.358ZM31.3263 100.275C32.008 100.275 32.5518 99.9948 32.9576 99.4348C33.3715 98.8748 33.5785 98.0632 33.5785 97C33.5785 95.9368 33.3715 95.1252 32.9576 94.5652C32.5518 94.0052 32.008 93.7252 31.3263 93.7252C30.6364 93.7252 30.0845 94.0052 29.6706 94.5652C29.2648 95.1252 29.0619 95.9368 29.0619 97C29.0619 98.0632 29.2648 98.8748 29.6706 99.4348C30.0845 99.9948 30.6364 100.275 31.3263 100.275ZM39.4462 101.358C38.7726 101.358 38.172 101.188 37.6444 100.847C37.125 100.498 36.7152 99.9948 36.4149 99.3374C36.1146 98.68 35.9644 97.9009 35.9644 97C35.9644 96.0991 36.1146 95.32 36.4149 94.6626C36.7152 94.0052 37.125 93.5061 37.6444 93.1652C38.172 92.8162 38.7726 92.6417 39.4462 92.6417C40.1117 92.6417 40.7042 92.8162 41.2236 93.1652C41.7511 93.5061 42.165 94.0052 42.4653 94.6626C42.7656 95.32 42.9157 96.0991 42.9157 97C42.9157 97.9009 42.7656 98.68 42.4653 99.3374C42.165 99.9948 41.7511 100.498 41.2236 100.847C40.7042 101.188 40.1117 101.358 39.4462 101.358ZM39.4462 100.275C40.1279 100.275 40.6717 99.9948 41.0775 99.4348C41.4914 98.8748 41.6984 98.0632 41.6984 97C41.6984 95.9368 41.4914 95.1252 41.0775 94.5652C40.6717 94.0052 40.1279 93.7252 39.4462 93.7252C38.7563 93.7252 38.2044 94.0052 37.7905 94.5652C37.3847 95.1252 37.1818 95.9368 37.1818 97C37.1818 98.0632 37.3847 98.8748 37.7905 99.4348C38.2044 99.9948 38.7563 100.275 39.4462 100.275Z" fill="#8D8D8D"/>
<path d="M32.1274 140C32.6874 140 33.1865 140.106 33.6248 140.317C34.0711 140.528 34.4201 140.832 34.6717 141.23C34.9233 141.619 35.0491 142.07 35.0491 142.581C35.0491 143.117 34.9152 143.587 34.6474 143.993C34.3877 144.399 34.0265 144.715 33.5639 144.943C33.1094 145.162 32.5981 145.271 32.03 145.271C30.8856 145.271 30.001 144.902 29.3761 144.163C28.7593 143.425 28.4509 142.378 28.4509 141.023C28.4509 140.073 28.6172 139.266 28.95 138.6C29.2909 137.926 29.7616 137.419 30.3622 137.078C30.9709 136.729 31.6769 136.555 32.4804 136.555C32.8943 136.555 33.2839 136.599 33.6491 136.689C34.0143 136.77 34.3309 136.892 34.5987 137.054L34.1361 138.003C33.7303 137.736 33.1865 137.602 32.5048 137.602C31.6201 137.602 30.9262 137.878 30.423 138.43C29.9198 138.973 29.6682 139.769 29.6682 140.816C29.6682 140.946 29.6723 141.047 29.6804 141.12C29.9239 140.755 30.2567 140.479 30.6787 140.292C31.1088 140.097 31.5917 140 32.1274 140ZM31.9813 144.285C32.5413 144.285 32.9958 144.135 33.3448 143.835C33.6938 143.534 33.8682 143.133 33.8682 142.63C33.8682 142.126 33.6897 141.729 33.3326 141.437C32.9836 141.136 32.5129 140.986 31.9204 140.986C31.539 140.986 31.1981 141.059 30.8978 141.205C30.6056 141.351 30.3743 141.55 30.2039 141.802C30.0416 142.053 29.9604 142.333 29.9604 142.642C29.9604 142.942 30.0375 143.218 30.1917 143.47C30.354 143.713 30.5853 143.912 30.8856 144.066C31.194 144.212 31.5593 144.285 31.9813 144.285ZM39.4462 145.271C38.7726 145.271 38.172 145.101 37.6444 144.76C37.125 144.411 36.7152 143.908 36.4149 143.25C36.1146 142.593 35.9644 141.814 35.9644 140.913C35.9644 140.012 36.1146 139.233 36.4149 138.576C36.7152 137.918 37.125 137.419 37.6444 137.078C38.172 136.729 38.7726 136.555 39.4462 136.555C40.1117 136.555 40.7042 136.729 41.2236 137.078C41.7511 137.419 42.165 137.918 42.4653 138.576C42.7656 139.233 42.9157 140.012 42.9157 140.913C42.9157 141.814 42.7656 142.593 42.4653 143.25C42.165 143.908 41.7511 144.411 41.2236 144.76C40.7042 145.101 40.1117 145.271 39.4462 145.271ZM39.4462 144.188C40.1279 144.188 40.6717 143.908 41.0775 143.348C41.4914 142.788 41.6984 141.976 41.6984 140.913C41.6984 139.85 41.4914 139.038 41.0775 138.478C40.6717 137.918 40.1279 137.638 39.4462 137.638C38.7563 137.638 38.2044 137.918 37.7905 138.478C37.3847 139.038 37.1818 139.85 37.1818 140.913C37.1818 141.976 37.3847 142.788 37.7905 143.348C38.2044 143.908 38.7563 144.188 39.4462 144.188Z" fill="#8D8D8D"/>
<path d="M34.9992 188.028V189.087H28.8757V188.259L32.3453 184.911C32.7673 184.505 33.0514 184.157 33.1974 183.864C33.3435 183.564 33.4166 183.264 33.4166 182.963C33.4166 182.517 33.2583 182.172 32.9418 181.929C32.6334 181.677 32.187 181.551 31.6027 181.551C30.6612 181.551 29.9348 181.86 29.4235 182.477L28.5957 181.758C28.9285 181.352 29.3627 181.036 29.8983 180.809C30.4421 180.581 31.0467 180.468 31.7122 180.468C32.605 180.468 33.3151 180.683 33.8427 181.113C34.3702 181.535 34.634 182.111 34.634 182.842C34.634 183.296 34.5366 183.726 34.3418 184.132C34.147 184.538 33.7777 185.001 33.234 185.52L30.6287 188.028H34.9992ZM39.4462 189.184C38.7726 189.184 38.172 189.014 37.6444 188.673C37.125 188.324 36.7152 187.821 36.4149 187.163C36.1146 186.506 35.9644 185.727 35.9644 184.826C35.9644 183.925 36.1146 183.146 36.4149 182.489C36.7152 181.831 37.125 181.332 37.6444 180.991C38.172 180.642 38.7726 180.468 39.4462 180.468C40.1117 180.468 40.7042 180.642 41.2236 180.991C41.7511 181.332 42.165 181.831 42.4653 182.489C42.7656 183.146 42.9157 183.925 42.9157 184.826C42.9157 185.727 42.7656 186.506 42.4653 187.163C42.165 187.821 41.7511 188.324 41.2236 188.673C40.7042 189.014 40.1117 189.184 39.4462 189.184ZM39.4462 188.101C40.1279 188.101 40.6717 187.821 41.0775 187.261C41.4914 186.701 41.6984 185.889 41.6984 184.826C41.6984 183.763 41.4914 182.951 41.0775 182.391C40.6717 181.831 40.1279 181.551 39.4462 181.551C38.7563 181.551 38.2044 181.831 37.7905 182.391C37.3847 182.951 37.1818 183.763 37.1818 184.826C37.1818 185.889 37.3847 186.701 37.7905 187.261C38.2044 187.821 38.7563 188.101 39.4462 188.101Z" fill="#8D8D8D"/>
<g clip-path="url(#clip0_462_1979)">
<rect width="273.783" height="124.783" transform="translate(48.7173 89.2609)" fill="white"/>
<line x1="49.1521" y1="89.5785" x2="49.1521" y2="212.681" stroke="#C5C5C5" stroke-width="0.869565" stroke-linecap="round"/>
<line x1="49.2693" y1="213.141" x2="321.811" y2="213.141" stroke="#C5C5C5" stroke-width="0.869565" stroke-linecap="round"/>
<rect x="132.061" y="106.652" width="36.4348" height="18.4783" rx="8.69565" fill="#EFEFF1"/>
<path d="M141.539 115.218C142.099 115.218 142.598 115.323 143.037 115.534C143.483 115.745 143.832 116.05 144.084 116.447C144.335 116.837 144.461 117.287 144.461 117.799C144.461 118.334 144.327 118.805 144.059 119.211C143.799 119.617 143.438 119.933 142.976 120.16C142.521 120.379 142.01 120.489 141.442 120.489C140.297 120.489 139.413 120.12 138.788 119.381C138.171 118.643 137.863 117.596 137.863 116.24C137.863 115.291 138.029 114.483 138.362 113.818C138.703 113.144 139.173 112.637 139.774 112.296C140.383 111.947 141.089 111.772 141.892 111.772C142.306 111.772 142.696 111.817 143.061 111.906C143.426 111.988 143.743 112.109 144.01 112.272L143.548 113.221C143.142 112.953 142.598 112.819 141.917 112.819C141.032 112.819 140.338 113.095 139.835 113.647C139.332 114.191 139.08 114.986 139.08 116.033C139.08 116.163 139.084 116.265 139.092 116.338C139.336 115.972 139.668 115.697 140.09 115.51C140.521 115.315 141.004 115.218 141.539 115.218ZM141.393 119.503C141.953 119.503 142.408 119.353 142.757 119.052C143.106 118.752 143.28 118.35 143.28 117.847C143.28 117.344 143.102 116.946 142.744 116.654C142.395 116.354 141.925 116.204 141.332 116.204C140.951 116.204 140.61 116.277 140.31 116.423C140.017 116.569 139.786 116.768 139.616 117.019C139.453 117.271 139.372 117.551 139.372 117.859C139.372 118.16 139.449 118.436 139.604 118.687C139.766 118.931 139.997 119.13 140.297 119.284C140.606 119.43 140.971 119.503 141.393 119.503ZM148.383 111.772C149.528 111.772 150.408 112.142 151.025 112.88C151.65 113.619 151.962 114.666 151.962 116.021C151.962 116.971 151.792 117.782 151.451 118.456C151.118 119.121 150.648 119.629 150.039 119.978C149.438 120.319 148.736 120.489 147.933 120.489C147.519 120.489 147.129 120.448 146.764 120.367C146.399 120.278 146.082 120.152 145.815 119.99L146.277 119.04C146.691 119.308 147.239 119.442 147.921 119.442C148.805 119.442 149.495 119.17 149.99 118.626C150.493 118.074 150.745 117.275 150.745 116.228V115.924C150.501 116.289 150.165 116.569 149.735 116.764C149.304 116.95 148.821 117.044 148.286 117.044C147.726 117.044 147.223 116.938 146.776 116.727C146.338 116.516 145.993 116.216 145.741 115.826C145.498 115.429 145.376 114.974 145.376 114.463C145.376 113.927 145.506 113.457 145.766 113.051C146.034 112.645 146.395 112.332 146.849 112.113C147.304 111.886 147.815 111.772 148.383 111.772ZM148.493 116.058C148.874 116.058 149.215 115.985 149.515 115.839C149.816 115.692 150.047 115.494 150.209 115.242C150.38 114.99 150.465 114.71 150.465 114.402C150.465 114.102 150.384 113.83 150.221 113.586C150.067 113.335 149.836 113.136 149.528 112.99C149.227 112.836 148.862 112.759 148.432 112.759C147.872 112.759 147.417 112.909 147.068 113.209C146.728 113.509 146.557 113.911 146.557 114.414C146.557 114.917 146.732 115.319 147.081 115.619C147.43 115.912 147.9 116.058 148.493 116.058ZM155.227 116.447C154.635 116.447 154.156 116.232 153.791 115.802C153.425 115.372 153.243 114.812 153.243 114.122C153.243 113.432 153.425 112.872 153.791 112.442C154.156 112.012 154.635 111.797 155.227 111.797C155.82 111.797 156.294 112.012 156.652 112.442C157.017 112.864 157.199 113.424 157.199 114.122C157.199 114.82 157.017 115.384 156.652 115.814C156.294 116.236 155.82 116.447 155.227 116.447ZM160.365 111.87H161.302L155.483 120.392H154.545L160.365 111.87ZM155.227 115.753C155.601 115.753 155.893 115.611 156.104 115.327C156.315 115.035 156.42 114.633 156.42 114.122C156.42 113.611 156.315 113.213 156.104 112.929C155.893 112.637 155.601 112.491 155.227 112.491C154.862 112.491 154.57 112.637 154.351 112.929C154.14 113.221 154.034 113.619 154.034 114.122C154.034 114.625 154.14 115.023 154.351 115.315C154.57 115.607 154.862 115.753 155.227 115.753ZM160.62 120.465C160.028 120.465 159.549 120.254 159.184 119.832C158.827 119.401 158.648 118.837 158.648 118.139C158.648 117.441 158.827 116.881 159.184 116.459C159.549 116.029 160.028 115.814 160.62 115.814C161.213 115.814 161.692 116.029 162.057 116.459C162.422 116.89 162.605 117.45 162.605 118.139C162.605 118.829 162.422 119.389 162.057 119.819C161.692 120.25 161.213 120.465 160.62 120.465ZM160.62 119.771C160.985 119.771 161.274 119.625 161.485 119.332C161.704 119.04 161.813 118.643 161.813 118.139C161.813 117.636 161.704 117.239 161.485 116.946C161.274 116.654 160.985 116.508 160.62 116.508C160.247 116.508 159.955 116.654 159.744 116.946C159.533 117.23 159.427 117.628 159.427 118.139C159.427 118.651 159.533 119.052 159.744 119.345C159.955 119.629 160.247 119.771 160.62 119.771Z" fill="black"/>
<path d="M150.736 128.252C150.532 128.603 150.024 128.603 149.821 128.252L147.535 124.292C147.332 123.94 147.586 123.5 147.992 123.5H152.565C152.971 123.5 153.225 123.94 153.022 124.292L150.736 128.252Z" fill="#EFEFF1"/>
<rect x="201.756" y="103.174" width="36.4348" height="18.4783" rx="8.69565" fill="#EFEFF1"/>
<path d="M213.767 108.391V109.219L210.321 116.913H209.031L212.403 109.45H208.508V110.972H207.339V108.391H213.767ZM218.321 117.01C217.648 117.01 217.047 116.84 216.52 116.499C216 116.15 215.59 115.647 215.29 114.99C214.99 114.332 214.84 113.553 214.84 112.652C214.84 111.751 214.99 110.972 215.29 110.315C215.59 109.657 216 109.158 216.52 108.817C217.047 108.468 217.648 108.294 218.321 108.294C218.987 108.294 219.579 108.468 220.099 108.817C220.626 109.158 221.04 109.657 221.34 110.315C221.641 110.972 221.791 111.751 221.791 112.652C221.791 113.553 221.641 114.332 221.34 114.99C221.04 115.647 220.626 116.15 220.099 116.499C219.579 116.84 218.987 117.01 218.321 117.01ZM218.321 115.927C219.003 115.927 219.547 115.647 219.953 115.087C220.366 114.527 220.573 113.715 220.573 112.652C220.573 111.589 220.366 110.777 219.953 110.217C219.547 109.657 219.003 109.377 218.321 109.377C217.631 109.377 217.08 109.657 216.666 110.217C216.26 110.777 216.057 111.589 216.057 112.652C216.057 113.715 216.26 114.527 216.666 115.087C217.08 115.647 217.631 115.927 218.321 115.927ZM225.053 112.969C224.461 112.969 223.982 112.754 223.617 112.324C223.252 111.893 223.069 111.333 223.069 110.644C223.069 109.954 223.252 109.394 223.617 108.964C223.982 108.533 224.461 108.318 225.053 108.318C225.646 108.318 226.121 108.533 226.478 108.964C226.843 109.386 227.025 109.946 227.025 110.644C227.025 111.341 226.843 111.906 226.478 112.336C226.121 112.758 225.646 112.969 225.053 112.969ZM230.191 108.391H231.128L225.309 116.913H224.372L230.191 108.391ZM225.053 112.275C225.427 112.275 225.719 112.133 225.93 111.849C226.141 111.557 226.246 111.155 226.246 110.644C226.246 110.132 226.141 109.735 225.93 109.45C225.719 109.158 225.427 109.012 225.053 109.012C224.688 109.012 224.396 109.158 224.177 109.45C223.966 109.743 223.86 110.14 223.86 110.644C223.86 111.147 223.966 111.544 224.177 111.837C224.396 112.129 224.688 112.275 225.053 112.275ZM230.446 116.986C229.854 116.986 229.375 116.775 229.01 116.353C228.653 115.923 228.474 115.359 228.474 114.661C228.474 113.963 228.653 113.403 229.01 112.981C229.375 112.551 229.854 112.336 230.446 112.336C231.039 112.336 231.518 112.551 231.883 112.981C232.248 113.411 232.431 113.971 232.431 114.661C232.431 115.351 232.248 115.911 231.883 116.341C231.518 116.771 231.039 116.986 230.446 116.986ZM230.446 116.292C230.812 116.292 231.1 116.146 231.311 115.854C231.53 115.562 231.639 115.164 231.639 114.661C231.639 114.158 231.53 113.76 231.311 113.468C231.1 113.176 230.812 113.03 230.446 113.03C230.073 113.03 229.781 113.176 229.57 113.468C229.359 113.752 229.253 114.15 229.253 114.661C229.253 115.172 229.359 115.574 229.57 115.866C229.781 116.15 230.073 116.292 230.446 116.292Z" fill="black"/>
<path d="M220.431 124.773C220.228 125.125 219.72 125.125 219.517 124.773L217.23 120.814C217.027 120.462 217.281 120.022 217.688 120.022H222.26C222.666 120.022 222.92 120.462 222.717 120.814L220.431 124.773Z" fill="#EFEFF1"/>
<rect x="271.459" y="92.7394" width="35.4348" height="18.4783" rx="8.69565" fill="#1DA2FB"/>
<path d="M283.47 97.9568V98.7846L280.025 106.479H278.734L282.106 99.0159H278.211V100.538H277.042V97.9568H283.47ZM287.001 101.353C288.219 101.353 289.111 101.585 289.679 102.047C290.256 102.502 290.544 103.127 290.544 103.922C290.544 104.425 290.422 104.88 290.179 105.285C289.943 105.683 289.582 106 289.095 106.235C288.616 106.462 288.024 106.576 287.318 106.576C286.717 106.576 286.137 106.487 285.577 106.308C285.017 106.121 284.554 105.866 284.189 105.541L284.749 104.579C285.041 104.855 285.415 105.079 285.869 105.249C286.324 105.411 286.802 105.492 287.306 105.492C287.947 105.492 288.442 105.359 288.791 105.091C289.148 104.815 289.326 104.441 289.326 103.971C289.326 103.459 289.132 103.074 288.742 102.814C288.352 102.546 287.687 102.412 286.746 102.412H284.81L285.26 97.9568H290.069V99.0159H286.283L286.052 101.353H287.001ZM293.532 102.534C292.939 102.534 292.461 102.319 292.095 101.889C291.73 101.459 291.548 100.899 291.548 100.209C291.548 99.5191 291.73 98.9591 292.095 98.5289C292.461 98.0988 292.939 97.8837 293.532 97.8837C294.124 97.8837 294.599 98.0988 294.956 98.5289C295.321 98.951 295.504 99.511 295.504 100.209C295.504 100.907 295.321 101.471 294.956 101.901C294.599 102.323 294.124 102.534 293.532 102.534ZM298.669 97.9568H299.607L293.788 106.479H292.85L298.669 97.9568ZM293.532 101.84C293.905 101.84 294.197 101.698 294.408 101.414C294.619 101.122 294.725 100.72 294.725 100.209C294.725 99.6976 294.619 99.3 294.408 99.0159C294.197 98.7237 293.905 98.5776 293.532 98.5776C293.167 98.5776 292.875 98.7237 292.655 99.0159C292.444 99.3081 292.339 99.7058 292.339 100.209C292.339 100.712 292.444 101.11 292.655 101.402C292.875 101.694 293.167 101.84 293.532 101.84ZM298.925 106.552C298.333 106.552 297.854 106.341 297.488 105.919C297.131 105.488 296.953 104.924 296.953 104.226C296.953 103.528 297.131 102.968 297.488 102.546C297.854 102.116 298.333 101.901 298.925 101.901C299.517 101.901 299.996 102.116 300.361 102.546C300.727 102.976 300.909 103.536 300.909 104.226C300.909 104.916 300.727 105.476 300.361 105.906C299.996 106.336 299.517 106.552 298.925 106.552ZM298.925 105.858C299.29 105.858 299.578 105.712 299.789 105.419C300.008 105.127 300.118 104.73 300.118 104.226C300.118 103.723 300.008 103.325 299.789 103.033C299.578 102.741 299.29 102.595 298.925 102.595C298.552 102.595 298.259 102.741 298.048 103.033C297.837 103.317 297.732 103.715 297.732 104.226C297.732 104.738 297.837 105.139 298.048 105.432C298.259 105.716 298.552 105.858 298.925 105.858Z" fill="#F2F2FA"/>
<path d="M289.634 114.338C289.431 114.69 288.923 114.69 288.72 114.338L286.434 110.379C286.23 110.027 286.484 109.587 286.891 109.587H291.463C291.869 109.587 292.123 110.027 291.92 110.379L289.634 114.338Z" fill="#1DA2FB"/>
<rect x="66.1079" y="102.305" width="33.4348" height="18.4783" rx="8.69565" fill="#EFEFF1"/>
<path d="M78.1182 107.522V108.35L74.673 116.044H73.3826L76.7548 108.581H72.8591V110.103H71.6904V107.522H78.1182ZM82.1895 107.522V116.044H80.9842V108.581H79.0608V107.522H82.1895ZM86.1474 112.1C85.5549 112.1 85.0761 111.885 84.7109 111.454C84.3457 111.024 84.1631 110.464 84.1631 109.774C84.1631 109.085 84.3457 108.525 84.7109 108.094C85.0761 107.664 85.5549 107.449 86.1474 107.449C86.7399 107.449 87.2147 107.664 87.5718 108.094C87.937 108.516 88.1196 109.076 88.1196 109.774C88.1196 110.472 87.937 111.036 87.5718 111.467C87.2147 111.889 86.7399 112.1 86.1474 112.1ZM91.2848 107.522H92.2222L86.4031 116.044H85.4657L91.2848 107.522ZM86.1474 111.406C86.5207 111.406 86.8129 111.264 87.0239 110.98C87.2349 110.687 87.3405 110.286 87.3405 109.774C87.3405 109.263 87.2349 108.865 87.0239 108.581C86.8129 108.289 86.5207 108.143 86.1474 108.143C85.7822 108.143 85.49 108.289 85.2709 108.581C85.0599 108.874 84.9544 109.271 84.9544 109.774C84.9544 110.278 85.0599 110.675 85.2709 110.967C85.49 111.26 85.7822 111.406 86.1474 111.406ZM91.5405 116.117C90.948 116.117 90.4692 115.906 90.1039 115.484C89.7468 115.054 89.5683 114.49 89.5683 113.792C89.5683 113.094 89.7468 112.534 90.1039 112.112C90.4692 111.682 90.948 111.467 91.5405 111.467C92.1329 111.467 92.6118 111.682 92.977 112.112C93.3422 112.542 93.5248 113.102 93.5248 113.792C93.5248 114.482 93.3422 115.042 92.977 115.472C92.6118 115.902 92.1329 116.117 91.5405 116.117ZM91.5405 115.423C91.9057 115.423 92.1938 115.277 92.4048 114.985C92.6239 114.693 92.7335 114.295 92.7335 113.792C92.7335 113.289 92.6239 112.891 92.4048 112.599C92.1938 112.307 91.9057 112.16 91.5405 112.16C91.1671 112.16 90.8749 112.307 90.6639 112.599C90.4529 112.883 90.3474 113.28 90.3474 113.792C90.3474 114.303 90.4529 114.705 90.6639 114.997C90.8749 115.281 91.1671 115.423 91.5405 115.423Z" fill="black"/>
<path d="M83.2825 123.904C83.0793 124.256 82.5713 124.256 82.3681 123.904L80.0821 119.944C79.8788 119.592 80.1328 119.153 80.5393 119.153H85.1114C85.5178 119.153 85.7718 119.592 85.5686 119.944L83.2825 123.904Z" fill="#EFEFF1"/>
<circle cx="83.0671" cy="134.043" r="6.52174" fill="#1DA2FB" fill-opacity="0.2"/>
<circle cx="83.0592" cy="134.042" r="3.62319" fill="#1DA2FB"/>
<circle cx="150.895" cy="139.262" r="6.52174" fill="#1DA2FB" fill-opacity="0.2"/>
<circle cx="150.887" cy="139.261" r="3.62319" fill="#1DA2FB"/>
<circle cx="220.458" cy="135.782" r="6.52174" fill="#1DA2FB" fill-opacity="0.2"/>
<circle cx="220.45" cy="135.781" r="3.62319" fill="#1DA2FB"/>
<circle cx="289.161" cy="126.217" r="6.52174" fill="#1DA2FB" fill-opacity="0.2"/>
<circle cx="288.872" cy="125.927" r="3.62319" fill="#1DA2FB"/>
<path d="M83.061 134.044L151.322 139.696L221.322 136.218L290.452 125.783" stroke="#1DA2FB" stroke-width="2.6087" stroke-linecap="round"/>
</g>
<path d="M64.5047 221.478V230H63.3116V227.517H60.9621C60.816 227.517 60.7064 227.512 60.6334 227.504L58.929 230H57.6386L59.5256 227.297C58.9169 227.094 58.4502 226.758 58.1256 226.287C57.8009 225.808 57.6386 225.228 57.6386 224.546C57.6386 223.58 57.947 222.83 58.5638 222.294C59.1887 221.75 60.0287 221.478 61.0838 221.478H64.5047ZM58.8682 224.534C58.8682 225.167 59.0508 225.654 59.416 225.995C59.7893 226.328 60.3371 226.494 61.0595 226.494H63.3116V222.537H61.1325C60.4021 222.537 59.8421 222.708 59.4525 223.049C59.0629 223.39 58.8682 223.885 58.8682 224.534ZM66.9692 223.548H68.1379V226.287H71.8145V223.548H72.9831V230H71.8145V227.297H68.1379V230H66.9692V223.548ZM79.6504 226.652C80.4863 226.863 80.9043 227.387 80.9043 228.223C80.9043 228.791 80.6892 229.229 80.2591 229.537C79.837 229.846 79.204 230 78.3599 230H75.2556V223.548H78.2504C79.0133 223.548 79.6098 223.694 80.0399 223.986C80.4701 224.27 80.6851 224.676 80.6851 225.203C80.6851 225.544 80.5918 225.841 80.4051 226.092C80.2266 226.336 79.975 226.522 79.6504 226.652ZM76.3999 226.323H78.153C78.5993 226.323 78.9362 226.242 79.1634 226.08C79.3988 225.918 79.5165 225.682 79.5165 225.374C79.5165 224.757 79.062 224.449 78.153 224.449H76.3999V226.323ZM78.2747 229.099C78.7617 229.099 79.1269 229.022 79.3704 228.868C79.6138 228.714 79.7356 228.474 79.7356 228.15C79.7356 227.817 79.622 227.569 79.3947 227.407C79.1756 227.245 78.8266 227.163 78.3478 227.163H76.3999V229.099H78.2747ZM85.0344 223.487C85.9271 223.487 86.6089 223.706 87.0796 224.144C87.5584 224.583 87.7978 225.236 87.7978 226.104V230H86.69V229.148C86.4952 229.448 86.2152 229.679 85.85 229.842C85.4929 229.996 85.0668 230.073 84.5718 230.073C83.8494 230.073 83.2692 229.899 82.8309 229.55C82.4007 229.201 82.1857 228.742 82.1857 228.174C82.1857 227.606 82.3926 227.151 82.8065 226.81C83.2205 226.461 83.8778 226.287 84.7787 226.287H86.6292V226.056C86.6292 225.552 86.4831 225.167 86.1909 224.899C85.8987 224.631 85.4686 224.497 84.9005 224.497C84.519 224.497 84.1457 224.562 83.7805 224.692C83.4152 224.814 83.1068 224.98 82.8552 225.191L82.3683 224.315C82.701 224.047 83.0987 223.844 83.5613 223.706C84.0239 223.56 84.5149 223.487 85.0344 223.487ZM84.7665 229.172C85.2129 229.172 85.5984 229.075 85.9231 228.88C86.2477 228.677 86.4831 228.393 86.6292 228.028V227.127H84.8274C83.8373 227.127 83.3422 227.46 83.3422 228.125C83.3422 228.45 83.468 228.706 83.7196 228.892C83.9712 229.079 84.3202 229.172 84.7665 229.172ZM93.3232 223.487C93.9481 223.487 94.5081 223.625 95.0032 223.901C95.4983 224.177 95.8838 224.562 96.1597 225.057C96.4438 225.552 96.5858 226.125 96.5858 226.774C96.5858 227.423 96.4438 227.999 96.1597 228.503C95.8838 228.998 95.4983 229.383 95.0032 229.659C94.5081 229.935 93.9481 230.073 93.3232 230.073C92.8606 230.073 92.4345 229.984 92.0449 229.805C91.6635 229.627 91.3388 229.367 91.071 229.026V232.362H89.9023V223.548H91.0223V224.57C91.282 224.213 91.6107 223.946 92.0084 223.767C92.4061 223.58 92.8444 223.487 93.3232 223.487ZM93.2258 229.05C93.6397 229.05 94.009 228.957 94.3336 228.77C94.6664 228.576 94.9261 228.308 95.1128 227.967C95.3075 227.618 95.4049 227.22 95.4049 226.774C95.4049 226.328 95.3075 225.934 95.1128 225.593C94.9261 225.244 94.6664 224.976 94.3336 224.79C94.009 224.603 93.6397 224.51 93.2258 224.51C92.82 224.51 92.4507 224.607 92.118 224.802C91.7933 224.988 91.5336 225.252 91.3388 225.593C91.1522 225.934 91.0588 226.328 91.0588 226.774C91.0588 227.22 91.1522 227.618 91.3388 227.967C91.5255 228.308 91.7852 228.576 92.118 228.77C92.4507 228.957 92.82 229.05 93.2258 229.05ZM101.266 225.739C102.086 225.747 102.711 225.934 103.141 226.299C103.571 226.664 103.786 227.18 103.786 227.845C103.786 228.543 103.551 229.083 103.08 229.464C102.618 229.838 101.952 230.02 101.084 230.012L98.2838 230V223.548H99.4525V225.727L101.266 225.739ZM100.986 229.123C101.514 229.132 101.912 229.026 102.179 228.807C102.455 228.588 102.593 228.263 102.593 227.833C102.593 227.411 102.459 227.103 102.192 226.908C101.932 226.713 101.53 226.612 100.986 226.603L99.4525 226.579V229.111L100.986 229.123Z" fill="#8D8D8D"/>
<path d="M132.057 225.727C132.057 226.855 131.663 227.74 130.876 228.381C130.089 229.022 128.977 229.367 127.54 229.416V230.317H126.408V229.416C124.972 229.359 123.856 229.01 123.06 228.369C122.273 227.728 121.88 226.847 121.88 225.727C121.88 224.599 122.273 223.714 123.06 223.073C123.856 222.432 124.972 222.083 126.408 222.026V221.162H127.54V222.026C128.969 222.083 130.077 222.436 130.864 223.085C131.659 223.726 132.057 224.607 132.057 225.727ZM127.54 228.466C128.628 228.401 129.456 228.137 130.024 227.675C130.6 227.204 130.888 226.551 130.888 225.715C130.888 224.895 130.596 224.254 130.012 223.791C129.435 223.321 128.612 223.053 127.54 222.988V228.466ZM123.06 225.727C123.06 226.555 123.349 227.204 123.925 227.675C124.509 228.137 125.337 228.401 126.408 228.466V222.988C125.321 223.053 124.489 223.317 123.913 223.779C123.344 224.242 123.06 224.891 123.06 225.727ZM139.566 226.81C139.566 226.9 139.557 227.017 139.541 227.163H134.306C134.379 227.732 134.627 228.19 135.049 228.539C135.479 228.88 136.011 229.05 136.644 229.05C137.415 229.05 138.036 228.791 138.506 228.271L139.152 229.026C138.859 229.367 138.494 229.627 138.056 229.805C137.626 229.984 137.143 230.073 136.607 230.073C135.926 230.073 135.321 229.935 134.793 229.659C134.266 229.375 133.856 228.981 133.564 228.478C133.28 227.975 133.138 227.407 133.138 226.774C133.138 226.149 133.276 225.585 133.552 225.082C133.836 224.579 134.221 224.189 134.708 223.913C135.203 223.629 135.759 223.487 136.376 223.487C136.993 223.487 137.541 223.629 138.019 223.913C138.506 224.189 138.884 224.579 139.152 225.082C139.428 225.585 139.566 226.161 139.566 226.81ZM136.376 224.473C135.816 224.473 135.345 224.643 134.964 224.984C134.59 225.325 134.371 225.772 134.306 226.323H138.446C138.381 225.78 138.157 225.337 137.776 224.997C137.403 224.648 136.936 224.473 136.376 224.473ZM145.773 226.652C146.609 226.863 147.027 227.387 147.027 228.223C147.027 228.791 146.812 229.229 146.382 229.537C145.96 229.846 145.327 230 144.483 230H141.379V223.548H144.373C145.136 223.548 145.733 223.694 146.163 223.986C146.593 224.27 146.808 224.676 146.808 225.203C146.808 225.544 146.715 225.841 146.528 226.092C146.35 226.336 146.098 226.522 145.773 226.652ZM142.523 226.323H144.276C144.722 226.323 145.059 226.242 145.286 226.08C145.522 225.918 145.639 225.682 145.639 225.374C145.639 224.757 145.185 224.449 144.276 224.449H142.523V226.323ZM144.398 229.099C144.885 229.099 145.25 229.022 145.493 228.868C145.737 228.714 145.859 228.474 145.859 228.15C145.859 227.817 145.745 227.569 145.518 227.407C145.299 227.245 144.95 227.163 144.471 227.163H142.523V229.099H144.398ZM152.277 223.487C152.902 223.487 153.462 223.625 153.957 223.901C154.452 224.177 154.838 224.562 155.114 225.057C155.398 225.552 155.54 226.125 155.54 226.774C155.54 227.423 155.398 227.999 155.114 228.503C154.838 228.998 154.452 229.383 153.957 229.659C153.462 229.935 152.902 230.073 152.277 230.073C151.815 230.073 151.389 229.984 150.999 229.805C150.618 229.627 150.293 229.367 150.025 229.026V232.362H148.857V223.548H149.977V224.57C150.236 224.213 150.565 223.946 150.963 223.767C151.36 223.58 151.799 223.487 152.277 223.487ZM152.18 229.05C152.594 229.05 152.963 228.957 153.288 228.77C153.621 228.576 153.88 228.308 154.067 227.967C154.262 227.618 154.359 227.22 154.359 226.774C154.359 226.328 154.262 225.934 154.067 225.593C153.88 225.244 153.621 224.976 153.288 224.79C152.963 224.603 152.594 224.51 152.18 224.51C151.774 224.51 151.405 224.607 151.072 224.802C150.748 224.988 150.488 225.252 150.293 225.593C150.106 225.934 150.013 226.328 150.013 226.774C150.013 227.22 150.106 227.618 150.293 227.967C150.48 228.308 150.739 228.576 151.072 228.77C151.405 228.957 151.774 229.05 152.18 229.05ZM159.479 223.487C160.372 223.487 161.054 223.706 161.525 224.144C162.003 224.583 162.243 225.236 162.243 226.104V230H161.135V229.148C160.94 229.448 160.66 229.679 160.295 229.842C159.938 229.996 159.512 230.073 159.017 230.073C158.295 230.073 157.714 229.899 157.276 229.55C156.846 229.201 156.631 228.742 156.631 228.174C156.631 227.606 156.838 227.151 157.252 226.81C157.666 226.461 158.323 226.287 159.224 226.287H161.074V226.056C161.074 225.552 160.928 225.167 160.636 224.899C160.344 224.631 159.914 224.497 159.346 224.497C158.964 224.497 158.591 224.562 158.226 224.692C157.86 224.814 157.552 224.98 157.3 225.191L156.813 224.315C157.146 224.047 157.544 223.844 158.006 223.706C158.469 223.56 158.96 223.487 159.479 223.487ZM159.212 229.172C159.658 229.172 160.043 229.075 160.368 228.88C160.693 228.677 160.928 228.393 161.074 228.028V227.127H159.272C158.282 227.127 157.787 227.46 157.787 228.125C157.787 228.45 157.913 228.706 158.165 228.892C158.416 229.079 158.765 229.172 159.212 229.172ZM169.887 223.548V230H168.718V224.57H165.942L165.869 226.007C165.829 226.875 165.751 227.602 165.638 228.186C165.524 228.762 165.338 229.225 165.078 229.574C164.818 229.923 164.457 230.097 163.994 230.097C163.783 230.097 163.544 230.061 163.276 229.988L163.349 229.002C163.455 229.026 163.552 229.038 163.641 229.038C163.966 229.038 164.209 228.896 164.372 228.612C164.534 228.328 164.64 227.991 164.688 227.602C164.737 227.212 164.782 226.656 164.822 225.934L164.932 223.548H169.887ZM175.129 225.739C175.949 225.747 176.574 225.934 177.004 226.299C177.434 226.664 177.649 227.18 177.649 227.845C177.649 228.543 177.414 229.083 176.943 229.464C176.48 229.838 175.815 230.02 174.946 230.012L172.146 230V223.548H173.315V225.727L175.129 225.739ZM174.849 229.123C175.376 229.132 175.774 229.026 176.042 228.807C176.318 228.588 176.456 228.263 176.456 227.833C176.456 227.411 176.322 227.103 176.054 226.908C175.794 226.713 175.393 226.612 174.849 226.603L173.315 226.579V229.111L174.849 229.123Z" fill="#8D8D8D"/>
<path d="M211.513 230L211.501 223.791L208.421 228.965H207.861L204.781 223.828V230H203.612V221.478H204.61L208.165 227.468L211.671 221.478H212.67L212.682 230H211.513ZM217.44 223.487C218.333 223.487 219.015 223.706 219.486 224.144C219.965 224.583 220.204 225.236 220.204 226.104V230H219.096V229.148C218.901 229.448 218.621 229.679 218.256 229.842C217.899 229.996 217.473 230.073 216.978 230.073C216.256 230.073 215.675 229.899 215.237 229.55C214.807 229.201 214.592 228.742 214.592 228.174C214.592 227.606 214.799 227.151 215.213 226.81C215.627 226.461 216.284 226.287 217.185 226.287H219.035V226.056C219.035 225.552 218.889 225.167 218.597 224.899C218.305 224.631 217.875 224.497 217.307 224.497C216.925 224.497 216.552 224.562 216.187 224.692C215.821 224.814 215.513 224.98 215.261 225.191L214.774 224.315C215.107 224.047 215.505 223.844 215.967 223.706C216.43 223.56 216.921 223.487 217.44 223.487ZM217.173 229.172C217.619 229.172 218.005 229.075 218.329 228.88C218.654 228.677 218.889 228.393 219.035 228.028V227.127H217.234C216.243 227.127 215.748 227.46 215.748 228.125C215.748 228.45 215.874 228.706 216.126 228.892C216.377 229.079 216.726 229.172 217.173 229.172ZM225.729 223.487C226.354 223.487 226.914 223.625 227.409 223.901C227.904 224.177 228.29 224.562 228.566 225.057C228.85 225.552 228.992 226.125 228.992 226.774C228.992 227.423 228.85 227.999 228.566 228.503C228.29 228.998 227.904 229.383 227.409 229.659C226.914 229.935 226.354 230.073 225.729 230.073C225.267 230.073 224.841 229.984 224.451 229.805C224.07 229.627 223.745 229.367 223.477 229.026V232.362H222.308V223.548H223.428V224.57C223.688 224.213 224.017 223.946 224.415 223.767C224.812 223.58 225.25 223.487 225.729 223.487ZM225.632 229.05C226.046 229.05 226.415 228.957 226.74 228.77C227.072 228.576 227.332 228.308 227.519 227.967C227.714 227.618 227.811 227.22 227.811 226.774C227.811 226.328 227.714 225.934 227.519 225.593C227.332 225.244 227.072 224.976 226.74 224.79C226.415 224.603 226.046 224.51 225.632 224.51C225.226 224.51 224.857 224.607 224.524 224.802C224.199 224.988 223.94 225.252 223.745 225.593C223.558 225.934 223.465 226.328 223.465 226.774C223.465 227.22 223.558 227.618 223.745 227.967C223.932 228.308 224.191 228.576 224.524 228.77C224.857 228.957 225.226 229.05 225.632 229.05ZM235.261 224.57H232.899V230H231.73V224.57H229.369V223.548H235.261V224.57Z" fill="#8D8D8D"/>
<path d="M270.709 227.87H266.18L265.243 230H263.989L267.848 221.478H269.053L272.924 230H271.646L270.709 227.87ZM270.283 226.896L268.444 222.72L266.606 226.896H270.283ZM280.178 223.548V230H279.009V224.57H275.369V230H274.2V223.548H280.178ZM285.86 223.487C286.485 223.487 287.045 223.625 287.54 223.901C288.035 224.177 288.421 224.562 288.697 225.057C288.981 225.552 289.123 226.125 289.123 226.774C289.123 227.423 288.981 227.999 288.697 228.503C288.421 228.998 288.035 229.383 287.54 229.659C287.045 229.935 286.485 230.073 285.86 230.073C285.397 230.073 284.971 229.984 284.582 229.805C284.2 229.627 283.876 229.367 283.608 229.026V232.362H282.439V223.548H283.559V224.57C283.819 224.213 284.148 223.946 284.545 223.767C284.943 223.58 285.381 223.487 285.86 223.487ZM285.763 229.05C286.177 229.05 286.546 228.957 286.87 228.77C287.203 228.576 287.463 228.308 287.65 227.967C287.844 227.618 287.942 227.22 287.942 226.774C287.942 226.328 287.844 225.934 287.65 225.593C287.463 225.244 287.203 224.976 286.87 224.79C286.546 224.603 286.177 224.51 285.763 224.51C285.357 224.51 284.988 224.607 284.655 224.802C284.33 224.988 284.07 225.252 283.876 225.593C283.689 225.934 283.596 226.328 283.596 226.774C283.596 227.22 283.689 227.618 283.876 227.967C284.062 228.308 284.322 228.576 284.655 228.77C284.988 228.957 285.357 229.05 285.763 229.05ZM296.652 226.81C296.652 226.9 296.644 227.017 296.628 227.163H291.393C291.466 227.732 291.713 228.19 292.135 228.539C292.566 228.88 293.097 229.05 293.73 229.05C294.501 229.05 295.122 228.791 295.593 228.271L296.238 229.026C295.946 229.367 295.581 229.627 295.142 229.805C294.712 229.984 294.229 230.073 293.694 230.073C293.012 230.073 292.407 229.935 291.88 229.659C291.352 229.375 290.942 228.981 290.65 228.478C290.366 227.975 290.224 227.407 290.224 226.774C290.224 226.149 290.362 225.585 290.638 225.082C290.922 224.579 291.308 224.189 291.794 223.913C292.29 223.629 292.846 223.487 293.462 223.487C294.079 223.487 294.627 223.629 295.106 223.913C295.593 224.189 295.97 224.579 296.238 225.082C296.514 225.585 296.652 226.161 296.652 226.81ZM293.462 224.473C292.902 224.473 292.432 224.643 292.05 224.984C291.677 225.325 291.458 225.772 291.393 226.323H295.532C295.467 225.78 295.244 225.337 294.862 224.997C294.489 224.648 294.022 224.473 293.462 224.473ZM303.897 223.548V230H302.728V224.57H299.953L299.88 226.007C299.839 226.875 299.762 227.602 299.648 228.186C299.535 228.762 299.348 229.225 299.088 229.574C298.829 229.923 298.468 230.097 298.005 230.097C297.794 230.097 297.554 230.061 297.287 229.988L297.36 229.002C297.465 229.026 297.563 229.038 297.652 229.038C297.977 229.038 298.22 228.896 298.382 228.612C298.545 228.328 298.65 227.991 298.699 227.602C298.748 227.212 298.792 226.656 298.833 225.934L298.942 223.548H303.897ZM309.139 225.739C309.959 225.747 310.584 225.934 311.014 226.299C311.444 226.664 311.659 227.18 311.659 227.845C311.659 228.543 311.424 229.083 310.953 229.464C310.491 229.838 309.825 230.02 308.957 230.012L306.157 230V223.548H307.326V225.727L309.139 225.739ZM308.859 229.123C309.387 229.132 309.785 229.026 310.053 228.807C310.328 228.588 310.466 228.263 310.466 227.833C310.466 227.411 310.333 227.103 310.065 226.908C309.805 226.713 309.403 226.612 308.859 226.603L307.326 226.579V229.111L308.859 229.123Z" fill="#8D8D8D"/>
<defs>
<clipPath id="clip0_462_1979">
<rect width="273.783" height="124.783" fill="white" transform="translate(48.7173 89.2609)"/>
</clipPath>
</defs>
</svg>
