<svg width="40" height="40" viewBox="0 0 40 40" fill="none" xmlns="http://www.w3.org/2000/svg">
<rect width="40" height="40" rx="12" fill="#5A56E9" fill-opacity="0.2"/>
<path d="M24.669 10.0005C28.07 10.0005 29.99 11.9295 30 15.3305V24.6705C30 28.0705 28.07 30.0005 24.669 30.0005H15.33C11.929 30.0005 10 28.0705 10 24.6705V15.3305C10 11.9295 11.929 10.0005 15.33 10.0005H24.669ZM20.5 14.1305C20.219 13.9605 19.879 13.9605 19.61 14.1305C19.339 14.2995 19.19 14.6105 19.219 14.9205V25.1105C19.27 25.5405 19.629 25.8605 20.049 25.8605C20.48 25.8605 20.839 25.5405 20.879 25.1105V14.9205C20.919 14.6105 20.77 14.2995 20.5 14.1305ZM15.83 17.4105C15.56 17.2405 15.219 17.2405 14.95 17.4105C14.679 17.5805 14.53 17.8895 14.56 18.2005V25.1105C14.599 25.5405 14.959 25.8605 15.389 25.8605C15.82 25.8605 16.179 25.5405 16.219 25.1105V18.2005C16.25 17.8895 16.099 17.5805 15.83 17.4105ZM25.089 21.0405C24.82 20.8705 24.48 20.8705 24.2 21.0405C23.929 21.2105 23.78 21.5095 23.82 21.8305V25.1105C23.86 25.5405 24.219 25.8605 24.65 25.8605C25.07 25.8605 25.429 25.5405 25.48 25.1105V21.8305C25.509 21.5095 25.36 21.2105 25.089 21.0405Z" fill="#5A56E9"/>
</svg>
