<svg width="40" height="40" viewBox="0 0 40 40" fill="none" xmlns="http://www.w3.org/2000/svg">
<rect width="40" height="40" rx="12" fill="#18A0FB" fill-opacity="0.2"/>
<path d="M17.8654 10.886C19.0358 9.70699 20.9465 9.70699 22.1269 10.877L22.8572 11.606C23.1373 11.886 23.5174 12.047 23.9176 12.047H24.9479C26.6085 12.047 27.959 13.396 27.959 15.056V16.087C27.959 16.486 28.1191 16.866 28.3992 17.146L29.1194 17.866C29.6897 18.426 29.9998 19.186 29.9998 19.986C30.0098 20.786 29.6997 21.547 29.1395 22.116L28.3992 22.856C28.1191 23.136 27.959 23.516 27.959 23.917V24.946C27.959 26.606 26.6085 27.957 24.9479 27.957H23.9176C23.5174 27.957 23.1373 28.116 22.8572 28.396L22.1369 29.116C21.5467 29.707 20.7764 29.996 20.0061 29.996C19.2359 29.996 18.4656 29.707 17.8754 29.127L17.1451 28.396C16.865 28.116 16.4849 27.957 16.0847 27.957H15.0543C13.3937 27.957 12.0433 26.606 12.0433 24.946V23.917C12.0433 23.516 11.8832 23.136 11.6031 22.846L10.8828 22.136C9.71241 20.967 9.70241 19.056 10.8728 17.877L11.6031 17.146C11.8832 16.866 12.0433 16.486 12.0433 16.076V15.056C12.0433 13.396 13.3937 12.047 15.0543 12.047H16.0847C16.4849 12.047 16.865 11.886 17.1451 11.606L17.8654 10.886ZM22.5771 21.696C22.0869 21.696 21.6968 22.087 21.6968 22.566C21.6968 23.056 22.0869 23.446 22.5771 23.446C23.0572 23.446 23.4474 23.056 23.4474 22.566C23.4474 22.087 23.0572 21.696 22.5771 21.696ZM23.1873 16.806C22.8472 16.467 22.297 16.467 21.9569 16.806L16.815 21.946C16.4749 22.286 16.4749 22.846 16.815 23.186C16.975 23.356 17.1951 23.446 17.4252 23.446C17.6653 23.446 17.8854 23.356 18.0454 23.186L23.1873 18.047C23.5274 17.707 23.5274 17.146 23.1873 16.806ZM17.4352 16.556C16.955 16.556 16.5549 16.946 16.5549 17.426C16.5549 17.917 16.955 18.306 17.4352 18.306C17.9154 18.306 18.3055 17.917 18.3055 17.426C18.3055 16.946 17.9154 16.556 17.4352 16.556Z" fill="#18A0FB"/>
</svg>
