<svg width="22" height="24" viewBox="0 0 22 24" fill="none" xmlns="http://www.w3.org/2000/svg">
<path d="M15.8895 0.333313C19.4933 0.333313 21.5 2.40998 21.5 5.96831V18.02C21.5 21.6366 19.4933 23.6666 15.8895 23.6666H6.11167C2.565 23.6666 0.5 21.6366 0.5 18.02V5.96831C0.5 2.40998 2.565 0.333313 6.11167 0.333313H15.8895ZM6.42667 16.3633C6.07667 16.3283 5.73833 16.4916 5.55167 16.795C5.365 17.0866 5.365 17.4716 5.55167 17.775C5.73833 18.0666 6.07667 18.2416 6.42667 18.195H15.5733C16.0388 18.1483 16.39 17.7505 16.39 17.285C16.39 16.8066 16.0388 16.41 15.5733 16.3633H6.42667ZM15.5733 11.0421H6.42667C5.92383 11.0421 5.51667 11.4516 5.51667 11.9533C5.51667 12.455 5.92383 12.8633 6.42667 12.8633H15.5733C16.075 12.8633 16.4833 12.455 16.4833 11.9533C16.4833 11.4516 16.075 11.0421 15.5733 11.0421ZM9.91383 5.75831H6.42667V5.76998C5.92383 5.76998 5.51667 6.17831 5.51667 6.67998C5.51667 7.18165 5.92383 7.58998 6.42667 7.58998H9.91383C10.4167 7.58998 10.825 7.18165 10.825 6.66715C10.825 6.16665 10.4167 5.75831 9.91383 5.75831Z" fill="#7B78ED"/>
</svg>