<svg width="24" height="24" viewBox="0 0 24 24" fill="none" xmlns="http://www.w3.org/2000/svg">
<path d="M7.24016 13.7147C8.88516 13.7147 10.2035 15.0459 10.2035 16.7025V20.6797C10.2035 22.3247 8.88516 23.6664 7.24016 23.6664H3.29683C1.6635 23.6664 0.333496 22.3247 0.333496 20.6797V16.7025C0.333496 15.0459 1.6635 13.7147 3.29683 13.7147H7.24016ZM20.7036 13.7147C22.3369 13.7147 23.6669 15.0459 23.6669 16.7025V20.6797C23.6669 22.3247 22.3369 23.6664 20.7036 23.6664H16.7603C15.1153 23.6664 13.7969 22.3247 13.7969 20.6797V16.7025C13.7969 15.0459 15.1153 13.7147 16.7603 13.7147H20.7036ZM7.24016 0.333374C8.88516 0.333374 10.2035 1.67504 10.2035 3.32121V7.29837C10.2035 8.95504 8.88516 10.285 7.24016 10.285H3.29683C1.6635 10.285 0.333496 8.95504 0.333496 7.29837V3.32121C0.333496 1.67504 1.6635 0.333374 3.29683 0.333374H7.24016ZM20.7036 0.333374C22.3369 0.333374 23.6669 1.67504 23.6669 3.32121V7.29837C23.6669 8.95504 22.3369 10.285 20.7036 10.285H16.7603C15.1153 10.285 13.7969 8.95504 13.7969 7.29837V3.32121C13.7969 1.67504 15.1153 0.333374 16.7603 0.333374H20.7036Z" fill="#7B78ED"/>
</svg>
